<?xml version="1.0" standalone="yes"?>
<svg width="200" height="42">
<path style="fill:#ffffff; stroke:none;" d="M0 0L0 6L96 6L96 18L99 17C97.6288 6.20958 112.422 7.0378 120 7.51389C146.786 9.19662 173.59 6.29232 200 6L200 0L0 0z"/>
<path style="fill:#000000; stroke:none;" d="M0 6L0 9L95 9L95 6L0 6z"/>
<path style="fill:#004578; stroke:none;" d="M95 6L92 23L96 24L95 6z"/>
<path style="fill:#00b4f8; stroke:none;" d="M99 17C91.5123 23.0627 100.603 25.9958 106 26C105.288 30.0307 104.609 33.4548 109 35L109 34L107 25L98 25L98 18L102 18L102 17C96.5501 9.37909 113.961 7.42198 118.772 8.88889C121.655 9.76819 122.135 13.5394 123 16L124 16C125.296 7.87372 140.107 7.50996 146 11L147 11L171 9.54398L195 10C188.888 5.36931 178.179 7.81223 171 7.98534C153.455 8.40841 135.61 6.78935 118 7.25926C110.782 7.45186 96.4011 6.24003 99 17z"/>
<path style="fill:#004578; stroke:none;" d="M192 6C195.426 12.4311 195.921 15.7102 195 23C198.473 26.5052 197.757 33.5225 191.956 34.5131C178.043 36.8892 160.907 35.5979 147 34L147 35C160.001 42.0143 185.291 37.9594 200 38L200 6L192 6z"/>
<path style="fill:#7bd8fb; stroke:none;" d="M117 8L117 9L121 9L117 8z"/>
<path style="fill:#5acefa; stroke:none;" d="M142.667 8.33333L143.333 8.66667L142.667 8.33333z"/>
<path style="fill:#ffffff; stroke:none;" d="M145 16C147.391 7.01944 132.036 7.84248 126.314 10.6034C123.686 11.8715 123.908 15.3706 121.569 16.9722C119.715 18.2415 117.123 17.9749 115 18L115 16C117.588 15.915 125.206 13.8126 120.392 10.0309C114.691 5.55166 100.237 9.77165 100 17L107 17L107 18L98 18L98 25L107 25L107 34C113.932 33.9178 114.977 31.636 115 25L122 25L122 28L127 28L127 34C132.663 33.9994 137.931 34.7016 139 28L147 27C145.481 36.1136 155.255 33.0825 161 32C164.526 37.4176 180.758 33.3453 187 33.4545C189.778 33.5031 193.12 34.4495 194.972 31.6813C197.912 27.2872 194 15.4453 194 10L165 9.90664L149.317 9.63889L145 16z"/>
<path style="fill:#94e0fc; stroke:none;" d="M158 8L158 9L161 9L158 8z"/>
<path style="fill:#7ed9fb; stroke:none;" d="M178 8L178 9L182 9L178 8z"/>
<path style="fill:#00b4f8; stroke:none;" d="M0 9L0 10L95 10L66 9L0 9z"/>
<path style="fill:#b3e9fd; stroke:none;" d="M109 9L109 10L115 10L109 9z"/>
<path style="fill:#b6eafd; stroke:none;" d="M136 9L136 10L140 10L136 9z"/>
<path style="fill:#45c8fa; stroke:none;" d="M161 9L161 10L170 10L161 9z"/>
<path style="fill:#8fdefc; stroke:none;" d="M173 9L173 10L176 10L173 9z"/>
<path style="fill:#ccf0fe; stroke:none;" d="M183 9L183 10L193 10L183 9z"/>
<path style="fill:#ffffff; stroke:none;" d="M0 10L0 16L1 16C5.76648 8.35226 15.2209 11.4076 23 11.7963C37.6736 12.5294 52.0036 14 67 14C76.0496 14 86.5403 12.4154 95 16L95 10L0 10z"/>
<path style="fill:#84e0fd; stroke:none;" d="M117 10L117 11L120 11L117 10z"/>
<path style="fill:#a6e8fd; stroke:none;" d="M142.667 10.3333L143.333 10.6667L142.667 10.3333z"/>
<path style="fill:#00a1f5; stroke:none;" d="M156 10L155 21L169 19L169 16L158 16L158 15L170 14L170 12L156 10z"/>
<path style="fill:#82dffd; stroke:none;" d="M178 10L178 11L182 11L178 10z"/>
<path style="fill:#c4eefd; stroke:none;" d="M194 10L194 20L195 20L194 10z"/>
<path style="fill:#009ada; stroke:none;" d="M195 10L195 20L196 20L195 10z"/>
<path style="fill:#00b4f8; stroke:none;" d="M2 15L3 15L8 14L9 14C13.4599 10.6911 31.3061 11.9069 34 17C38.9748 15.5921 41.669 16.1757 46 19L47 19L57 19L71 19C75.6953 14.4187 90.6026 13.8389 94 20L95 20C93.9311 13.2973 88.6842 14.0004 83 14L50 14C45.7586 14 38.9698 12.6014 36 16C32.2549 9.99533 4.64396 7.03381 2 15z"/>
<path style="fill:#4dd0fb; stroke:none;" d="M109 11L109 12L115 12L109 11z"/>
<path style="fill:#00b4f8; stroke:none;" d="M102 12L102 15L120 14L120 11L102 12z"/>
<path style="fill:#4acffb; stroke:none;" d="M136 11L136 12L140 12L136 11z"/>
<path style="fill:#017def; stroke:none;" d="M126 12L126 15L134 15L125 18L125 20L133 20L133 23L124 23L124 26L134 26L134 29L129 29L129 32L137 32L137 26L146 26L146 23L137 23L137 20L145 20L145 18L137 18L144 14L144 11L126 12z"/>
<path style="fill:#3cc6fa; stroke:none;" d="M146 11L145 16L146 11z"/>
<path style="fill:#00b4f8; stroke:none;" d="M149 11L153 16C152.866 12.7494 152.102 11.9483 149 11z"/>
<path style="fill:#bbedfd; stroke:none;" d="M160 11L160 12L170 12L160 11z"/>
<path style="fill:#71d9fc; stroke:none;" d="M173 11L173 12L176 12L173 11z"/>
<path style="fill:#009cf4; stroke:none;" d="M173 12L173 19L192 19L192 12L184 12L184 14L189 14L189 15L184 15L184 16L189 16L189 18L176 18L176 16L182 16L182 15L177 15L177 14L182 11L173 12z"/>
<path style="fill:#33acf5; stroke:none;" d="M183 14L184 14L192 12L192 19L173 19L173 20L193 20L193 11C189.233 11 183.946 9.5872 183 14z"/>
<path style="fill:#abe6fd; stroke:none;" d="M4 12L4 13L8 13L4 12z"/>
<path style="fill:#7fd9fb; stroke:none;" d="M9 12L9 13L16 13L9 12z"/>
<path style="fill:#56cdfa; stroke:none;" d="M30.6667 12.3333L31.3333 12.6667L30.6667 12.3333z"/>
<path style="fill:#ffffff; stroke:none;" d="M3 13C2.19567 17.3325 0.715151 23.677 3.3179 27.6821C6.55562 32.6642 22.9854 30.1589 27 27L28 27C30.8853 29.9126 33.5906 30.2303 35 26L38 26L38 29L43 29L49 25C50.3319 32.9847 56.0273 26.8077 57 22L62 23L62 24L58 24C58.5657 31.2551 63.3692 29.2521 68 26C70.4918 30.4888 73.1917 29.246 75 25C77.9629 28.2672 83.5099 30.9015 87 27L88 27L89 27L94 29L92 23L92 22L94 17C87.9216 17 74.6784 13.268 71 19C61.9313 16.9702 54.6967 18.6181 45.615 17.8302C40.2449 17.3644 39.2518 14.4722 34 18C32.6007 9.6154 10.2622 13.1692 3 13z"/>
<path style="fill:#9ae1fc; stroke:none;" d="M24 13L24 14L27 14L24 13z"/>
<path style="fill:#99dffc; stroke:none;" d="M177 14L177 15L182 13L177 14z"/>
<path style="fill:#42c6fa; stroke:none;" d="M5 14L5 17L7 17L7 14L5 14z"/>
<path style="fill:#7dd6fc; stroke:none;" d="M10.6667 14.3333L11.3333 14.6667L10.6667 14.3333z"/>
<path style="fill:#00a8f6; stroke:none;" d="M14 14L8 16L8 18L8 19L12 19L12 20L9 20L9 21L16 21L16 20L13 20L13 19L17 19L17 18L15 17L17 17L14 14z"/>
<path style="fill:#00639a; stroke:none;" d="M35.3333 14.6667L35.6667 15.3333L35.3333 14.6667z"/>
<path style="fill:#6ad0fa; stroke:none;" d="M113 14L113 15L116 15L113 14z"/>
<path style="fill:#66cffa; stroke:none;" d="M138 14L138 15L141 15L138 14z"/>
<path style="fill:#44c4f9; stroke:none;" d="M159 14L159 15L170 15L159 14z"/>
<path style="fill:#99dffc; stroke:none;" d="M184 14L184 15L189 15L184 14z"/>
<path style="fill:#66d2fb; stroke:none;" d="M1 15L1 19L2 19L3 15L1 15z"/>
<path style="fill:#aae1fc; stroke:none;" d="M8.66667 15.3333L9.33333 15.6667L8.66667 15.3333z"/>
<path style="fill:#6bcffb; stroke:none;" d="M12.6667 15.3333L13.3333 15.6667L12.6667 15.3333z"/>
<path style="fill:#aae1fc; stroke:none;" d="M15.6667 15.3333L16.3333 15.6667L15.6667 15.3333z"/>
<path style="fill:#00bcf9; stroke:none;" d="M20 15L23 17L20 15z"/>
<path style="fill:#8dd8fb; stroke:none;" d="M24 15L24 16L27 16L24 15z"/>
<path style="fill:#017eef; stroke:none;" d="M24 16L24 23L20 28L21 28L25 24L23 27L33 24L33 23L30 22L32 20L32 19L26 19L32 16L24 16z"/>
<path style="fill:#9ae1fc; stroke:none;" d="M78 15L78 16L81 16L78 15z"/>
<path style="fill:#0187f1; stroke:none;" d="M112 15L109 16L109 20L100 20L100 23L109 23L109 32L113 32L113 23L122 23L122 20L113 20L112 15z"/>
<path style="fill:#007fbb; stroke:none;" d="M119 16L119 17L123 16L119 16z"/>
<path style="fill:#99ddfc; stroke:none;" d="M126 15L126 16L134 17L126 15z"/>
<path style="fill:#66c7f9; stroke:none;" d="M183 15L183 17L176 16L176 18L189 18L189 16L183 15z"/>
<path style="fill:#00b4f8; stroke:none;" d="M0 16C0.210324 21.5771 -0.327214 27.7759 5 31L0 16z"/>
<path style="fill:#7dd0fa; stroke:none;" d="M28 16L28 17L31 17L28 16z"/>
<path style="fill:#abe6fd; stroke:none;" d="M83 16L83 17L93 17L83 16z"/>
<path style="fill:#12b9f8; stroke:none;" d="M115 16L115 18L123 16L115 16z"/>
<path style="fill:#009cf4; stroke:none;" d="M148 16L152 22L153 18L148 16z"/>
<path style="fill:#b8dffb; stroke:none;" d="M3 17L4 21L5 21L3 17z"/>
<path style="fill:#0098f3; stroke:none;" d="M4 17L4 23L8 17L4 17z"/>
<path style="fill:#d1ecfd; stroke:none;" d="M8.66667 17.3333L9.33333 17.6667L8.66667 17.3333z"/>
<path style="fill:#8dd2fa; stroke:none;" d="M12.6667 17.3333L13.3333 17.6667L12.6667 17.3333z"/>
<path style="fill:#89dcfc; stroke:none;" d="M34.6667 17.3333L35.3333 17.6667L34.6667 17.3333z"/>
<path style="fill:#017eef; stroke:none;" d="M38 17L35 20L35 21L39 23L35 22L40 27L44 24L44 23L40 23L40 21L44 21L44 20L38 17z"/>
<path style="fill:#89dcfc; stroke:none;" d="M42 17L42 18L45 18L42 17z"/>
<path style="fill:#90defc; stroke:none;" d="M57.3333 17.6667L57.6667 18.3333L57.3333 17.6667z"/>
<path style="fill:#6bb7f6; stroke:none;" d="M79 17L81 21L79 17z"/>
<path style="fill:#45c8fa; stroke:none;" d="M102 17L102 18L107 18L102 17z"/>
<path style="fill:#66c7f9; stroke:none;" d="M125 17L125 18L133 18L125 17M137 17L137 18L145 18L137 17z"/>
<path style="fill:#78cbf9; stroke:none;" d="M147.333 17.6667L147.667 18.3333L147.333 17.6667z"/>
<path style="fill:#aad6fa; stroke:none;" d="M7 18L12 20L12 19L7 18M17 18L13 19L13 20L17 18z"/>
<path style="fill:#6bc1f8; stroke:none;" d="M26 18L26 19L33 20L26 18z"/>
<path style="fill:#78d7fb; stroke:none;" d="M54.6667 18.3333L55.3333 18.6667L54.6667 18.3333z"/>
<path style="fill:#58b5f7; stroke:none;" d="M59 18L59 20L61 18L59 18z"/>
<path style="fill:#017eef; stroke:none;" d="M73 18L70 28L75 18L73 18z"/>
<path style="fill:#7dc8f9; stroke:none;" d="M83 20L93 19C89.7557 17.6387 85.4371 17.211 83 20z"/>
<path style="fill:#8fd1fa; stroke:none;" d="M153.333 18.6667L153.667 19.3333L153.333 18.6667z"/>
<path style="fill:#26a7f6; stroke:none;" d="M20 19L22 21L22 19L20 19z"/>
<path style="fill:#8dc5f8; stroke:none;" d="M22.3333 19.6667L22.6667 20.3333L22.3333 19.6667z"/>
<path style="fill:#9cd0fa; stroke:none;" d="M34 21L38 20L34 21M40 19L40 20L44 20L40 19z"/>
<path style="fill:#58b5f7; stroke:none;" d="M48.6667 19.3333L49.3333 19.6667L48.6667 19.3333z"/>
<path style="fill:#00a0f5; stroke:none;" d="M60 19L60 20L64 21L60 19z"/>
<path style="fill:#0176ee; stroke:none;" d="M84 19L84 20L88 20L83 26L93 27L91 19L84 19z"/>
<path style="fill:#ffffff; stroke:none;" d="M154 19L153 21L155 21L154 19z"/>
<path style="fill:#0167eb; stroke:none;" d="M156 19L148 31L149 32L151 32L155 25L154 31L163 30L163 33C169.658 31.9123 169.71 24.6903 169 19L166 19L166 22L163 22L162 19L161 22L158 22L158 19L156 19z"/>
<path style="fill:#57b7f6; stroke:none;" d="M158 19C158.662 22.1504 160.338 22.1504 161 19L160 19L158 19z"/>
<path style="fill:#ffffff; stroke:none;" d="M159.333 19.6667L159.667 20.3333L159.333 19.6667z"/>
<path style="fill:#57b7f6; stroke:none;" d="M163 19C163.662 22.1504 165.338 22.1504 166 19L165 19L163 19z"/>
<path style="fill:#ffffff; stroke:none;" d="M164.333 19.6667L164.667 20.3333L164.333 19.6667M0 20L1 21L0 20z"/>
<path style="fill:#4293f1; stroke:none;" d="M7 20L4 23L5 28L7 28L9 20L7 20z"/>
<path style="fill:#6ca6f3; stroke:none;" d="M16 20L16 25L17 25L16 20z"/>
<path style="fill:#6cb1f6; stroke:none;" d="M25.3333 20.6667L25.6667 21.3333L25.3333 20.6667z"/>
<path style="fill:#ffffff; stroke:none;" d="M26 20L26 22L29 22L29 20L26 20z"/>
<path style="fill:#6cb1f6; stroke:none;" d="M30.3333 20.6667L30.6667 21.3333L30.3333 20.6667z"/>
<path style="fill:#0186f1; stroke:none;" d="M48 20L48 23L51 28L52 28L52 23L53 23L55 25L56 21L48 20M76 20L80 27L81 26L76 20z"/>
<path style="fill:#77c5f8; stroke:none;" d="M125 20L125 21L133 21L125 20M137 23L138 23L145 21C142.026 19.2864 137.82 19.1719 137 23z"/>
<path style="fill:#6ab3f6; stroke:none;" d="M173 20L173 29L174 29L174 21L178 21L173 20z"/>
<path style="fill:#f7fcff; stroke:none;" d="M179.667 20.3333L180.333 20.6667L179.667 20.3333z"/>
<path style="fill:#77c5f8; stroke:none;" d="M181 20L181 21L185 21L181 20M187 20L187 21L192 21L187 20z"/>
<path style="fill:#00b4f8; stroke:none;" d="M194 20L194 23L195 23L194 20z"/>
<path style="fill:#9ae1fc; stroke:none;" d="M1 21L1 24L2 24L1 21z"/>
<path style="fill:#0176ee; stroke:none;" d="M9 21L8 28L15 25L16 25L16 21L9 21z"/>
<path style="fill:#7db9f6; stroke:none;" d="M10.6667 21.3333L11.3333 21.6667L10.6667 21.3333z"/>
<path style="fill:#aacff9; stroke:none;" d="M13.6667 21.3333L14.3333 21.6667L13.6667 21.3333z"/>
<path style="fill:#bcebfd; stroke:none;" d="M18 21L18 25L19 25L18 21z"/>
<path style="fill:#d1e3fb; stroke:none;" d="M33 24L35 22L39 23C36.7603 20.4735 34.6933 21.3803 33 24z"/>
<path style="fill:#6cabf5; stroke:none;" d="M40.3333 21.6667L40.6667 22.3333L40.3333 21.6667z"/>
<path style="fill:#0176ee; stroke:none;" d="M60 26L60 27L69 21L60 26z"/>
<path style="fill:#2cc1f9; stroke:none;" d="M147 21L148 22L147 21z"/>
<path style="fill:#99d1fa; stroke:none;" d="M153 21L153 23L155 21L153 21z"/>
<path style="fill:#0475ed; stroke:none;" d="M174 21L172 32L188 31L188 29L184 29L184 27L189 27C190.154 33.9262 193.837 29.9785 194 25L193 25L193 27L192 27L192 21L174 21z"/>
<path style="fill:#aac2f6; stroke:none;" d="M8 22L8 27L9 27L8 22z"/>
<path style="fill:#9cc4f8; stroke:none;" d="M21 22L21 23L24 23L21 22z"/>
<path style="fill:#6cabf5; stroke:none;" d="M26 22L26 23L29 23L26 22M31.6667 22.3333L32.3333 22.6667L31.6667 22.3333z"/>
<path style="fill:#aac9f8; stroke:none;" d="M47 22L50 24L50 23L47 22z"/>
<path style="fill:#89dcfc; stroke:none;" d="M57 22L57 28L58 28L58 24L62 24L57 22z"/>
<path style="fill:#7fd9fb; stroke:none;" d="M80 22L80 23L84 24L84 23L80 22z"/>
<path style="fill:#12b9f8; stroke:none;" d="M82.6667 22.3333L83.3333 22.6667L82.6667 22.3333z"/>
<path style="fill:#66d2fb; stroke:none;" d="M148.333 22.6667L148.667 23.3333L148.333 22.6667z"/>
<path style="fill:#c0dffb; stroke:none;" d="M170 22L169 25L170 22z"/>
<path style="fill:#7daff4; stroke:none;" d="M10.6667 23.3333L11.3333 23.6667L10.6667 23.3333z"/>
<path style="fill:#aac9f8; stroke:none;" d="M13.6667 23.3333L14.3333 23.6667L13.6667 23.3333z"/>
<path style="fill:#00a3e5; stroke:none;" d="M93.6667 23.3333L94.3333 23.6667L93.6667 23.3333z"/>
<path style="fill:#aad5fa; stroke:none;" d="M100 23L100 24L109 24L100 23M113 23L113 24L122 24L113 23z"/>
<path style="fill:#94cbf9; stroke:none;" d="M177 23L177 25L179 23L177 23z"/>
<path style="fill:#d0e7fc; stroke:none;" d="M180 23L179 25L181 25L180 23z"/>
<path style="fill:#acd6fa; stroke:none;" d="M184 23L184 25L186 23L184 23z"/>
<path style="fill:#6ab3f6; stroke:none;" d="M186 23C187.127 25.0059 187.873 25.0059 189 23L186 23z"/>
<path style="fill:#008ecc; stroke:none;" d="M195.667 23.3333L196.333 23.6667L195.667 23.3333z"/>
<path style="fill:#6c99f1; stroke:none;" d="M11 27L15 24L11 27z"/>
<path style="fill:#ffffff; stroke:none;" d="M22 26L25 24L22 26z"/>
<path style="fill:#9cbaf5; stroke:none;" d="M28 24L28 26L30 24L28 24z"/>
<path style="fill:#9cbef6; stroke:none;" d="M35 24L35 25L39 25L35 24M41 24L41 25L44 25L41 24z"/>
<path style="fill:#7fd9fb; stroke:none;" d="M94 24L94 28L95 28L94 24z"/>
<path style="fill:#007cb8; stroke:none;" d="M95 24L95 28L96 28L95 24z"/>
<path style="fill:#ffffff; stroke:none;" d="M96 24L97 25L96 24z"/>
<path style="fill:#67b1f5; stroke:none;" d="M158.667 24.3333L159.333 24.6667L158.667 24.3333z"/>
<path style="fill:#81dafc; stroke:none;" d="M196 24L196 29L197 29L196 24z"/>
<path style="fill:#007db9; stroke:none;" d="M197 24L197 29L198 29L197 24z"/>
<path style="fill:#ffffff; stroke:none;" d="M0 25L0 33L5 33L0 25z"/>
<path style="fill:#2770ec; stroke:none;" d="M14 25L17 28L14 25z"/>
<path style="fill:#0168ec; stroke:none;" d="M29 25L29 26L33 27L33 26L29 25z"/>
<path style="fill:#9ae1fc; stroke:none;" d="M46 25L46 26L48 28L49 28L46 25z"/>
<path style="fill:#8daef4; stroke:none;" d="M50 25L50 28L51 28L50 25z"/>
<path style="fill:#9cbaf5; stroke:none;" d="M59 25L59 28L62 28L62 27C60.0399 26.3466 59.446 26 62 26L59 25z"/>
<path style="fill:#2ac0f9; stroke:none;" d="M75 25L74 29L75 29L75 25z"/>
<path style="fill:#004578; stroke:none;" d="M96 25C92.8549 31.8063 84.2799 29.0996 78 30L78 31L95 31C91.3144 36.685 77.2045 34 71 34L0 34L0 35L71 35C77.2045 35 91.3144 32.315 95 38L96 38L96 25z"/>
<path style="fill:#56cdfa; stroke:none;" d="M115 25L115 26L122 26L115 25z"/>
<path style="fill:#87bff7; stroke:none;" d="M153 25L153 27L155 27L155 25L153 25z"/>
<path style="fill:#ffffff; stroke:none;" d="M158 25L158 27L160 27L160 25L158 25M163 25L163 27L165 27L165 25L163 25z"/>
<path style="fill:#80b9f6; stroke:none;" d="M168 25L169 30L170 30L168 25z"/>
<path style="fill:#6aadf4; stroke:none;" d="M192.333 25.6667L192.667 26.3333L192.333 25.6667M194 25L194 28L195 28L194 25z"/>
<path style="fill:#588ef0; stroke:none;" d="M21 26L24 28L21 26z"/>
<path style="fill:#89dcfc; stroke:none;" d="M35 26L35 27L38 28L35 26z"/>
<path style="fill:#4ccafa; stroke:none;" d="M43 29L44 29L46 27C43.8603 25.8822 43.4732 26.7492 43 29z"/>
<path style="fill:#004578; stroke:none;" d="M46 26L38 30L38 31C41.97 31.9642 46.4126 30.8522 46 26z"/>
<path style="fill:#009ada; stroke:none;" d="M47 26L46 29C50.8875 31.0551 54.4552 31.136 57 26C52.7355 28.3166 51.0481 29.1847 47 26z"/>
<path style="fill:#004578; stroke:none;" d="M67 26L59 31L59 32C62.8148 31.8015 68.6933 31.0169 67 26z"/>
<path style="fill:#ffffff; stroke:none;" d="M97 26L96 38L0 38L0 42L200 42L200 38C184.638 37.8728 168.501 38.4091 153.285 37.027C150.33 36.7586 147.96 34.567 144.999 34.419C141.335 34.2358 138.569 37.318 135.001 37.7284C131.325 38.1511 129.048 35.8289 125.83 34.6983C117.439 31.7498 107.9 43.6662 105 29L97 26z"/>
<path style="fill:#004578; stroke:none;" d="M99 26L106 29L106 26L99 26z"/>
<path style="fill:#00a0e1; stroke:none;" d="M115 26L115 33L116 33L115 26z"/>
<path style="fill:#004578; stroke:none;" d="M116 26C115.826 31.8195 114.004 34.5883 108 35C114.084 43.6094 119.384 31.1744 121 26L116 26z"/>
<path style="fill:#0160ea; stroke:none;" d="M121 26L118 29L118 34L126 34L121 26z"/>
<path style="fill:#5ba2f3; stroke:none;" d="M133 26L133 29L134 29L133 26z"/>
<path style="fill:#97e0fc; stroke:none;" d="M171.333 26.6667L171.667 27.3333L171.333 26.6667z"/>
<path style="fill:#008cca; stroke:none;" d="M27 27L25 30L34 31L34 30L27 27z"/>
<path style="fill:#588aef; stroke:none;" d="M31.6667 27.3333L32.3333 27.6667L31.6667 27.3333z"/>
<path style="fill:#004578; stroke:none;" d="M35 27L30 31L30 32C34.3282 32.3254 36.2776 31.4127 37 27L35 27M75 27L70 31L70 32C73.4507 31.7315 76.2799 30.9057 75 27z"/>
<path style="fill:#0084c0; stroke:none;" d="M76 27L81 30L81 29L76 27z"/>
<path style="fill:#a7e5fd; stroke:none;" d="M87.6667 27.3333L88.3333 27.6667L87.6667 27.3333z"/>
<path style="fill:#a5e5fd; stroke:none;" d="M146.333 27.6667L146.667 28.3333L146.333 27.6667z"/>
<path style="fill:#6eadf5; stroke:none;" d="M158.667 27.3333L159.333 27.6667L158.667 27.3333z"/>
<path style="fill:#83b9f6; stroke:none;" d="M163.667 27.3333L164.333 27.6667L163.667 27.3333z"/>
<path style="fill:#dcebfd; stroke:none;" d="M177.667 27.3333L178.333 27.6667L177.667 27.3333z"/>
<path style="fill:#91bff7; stroke:none;" d="M180.333 27.6667L180.667 28.3333L180.333 27.6667z"/>
<path style="fill:#8fc0f7; stroke:none;" d="M184 27L184 29L187 29L187 27L184 27z"/>
<path style="fill:#569cf2; stroke:none;" d="M187 27L188 31L189 31L187 27z"/>
<path style="fill:#aabff5; stroke:none;" d="M5.66667 28.3333L6.33333 28.6667L5.66667 28.3333z"/>
<path style="fill:#00a8ea; stroke:none;" d="M37 28L37 30L39 30L37 28z"/>
<path style="fill:#004578; stroke:none;" d="M55 28L50 31L50 32C53.7099 32.1396 55.2638 31.2834 57 28L55 28z"/>
<path style="fill:#0084c0; stroke:none;" d="M57 28L62 31L62 30L57 28z"/>
<path style="fill:#00a9eb; stroke:none;" d="M64.6667 28.3333L65.3333 28.6667L64.6667 28.3333z"/>
<path style="fill:#008bc9; stroke:none;" d="M68 28L73 31L73 30L68 28z"/>
<path style="fill:#2cc1f9; stroke:none;" d="M81.6667 28.3333L82.3333 28.6667L81.6667 28.3333z"/>
<path style="fill:#33c3f9; stroke:none;" d="M83 29L83 30L89 29L83 29M122 28L122 29L126 29C125.049 36.2617 131.569 35 137 35L137 34L127 34L127 28L122 28z"/>
<path style="fill:#23bef9; stroke:none;" d="M139 28L139 32L140 32L140 29L145 29L149 34L149 33L146 28L139 28z"/>
<path style="fill:#66a5f4; stroke:none;" d="M177.667 28.3333L178.333 28.6667L177.667 28.3333z"/>
<path style="fill:#00a1e2; stroke:none;" d="M11 29L11 30L14 30L11 29z"/>
<path style="fill:#008bc9; stroke:none;" d="M18 29L25 31L25 30L18 29z"/>
<path style="fill:#9ae1fc; stroke:none;" d="M21 29L21 30L25 30L21 29z"/>
<path style="fill:#004578; stroke:none;" d="M27 29L4 31L4 32C7.58762 33.1561 27.7963 33.8303 27 29z"/>
<path style="fill:#78d7fb; stroke:none;" d="M39 29L39 30L42 30L39 29z"/>
<path style="fill:#ffffff; stroke:none;" d="M38 30L37 30L34 32L34 33L52 33L38 30z"/>
<path style="fill:#00a9eb; stroke:none;" d="M62.6667 29.3333L63.3333 29.6667L62.6667 29.3333z"/>
<path style="fill:#ffffff; stroke:none;" d="M76 29L53 32L53 33L83 33L95 31L76 29z"/>
<path style="fill:#45c8fa; stroke:none;" d="M90 29L90 30L94 30L90 29z"/>
<path style="fill:#004578; stroke:none;" d="M123 29L123 31L126 31L126 29L123 29M140 29C137.893 34.8578 133.629 34.9838 128 35C133.126 42.2546 143.042 35.573 145 29L140 29z"/>
<path style="fill:#02b5f8; stroke:none;" d="M196 29L196 32L197 32L196 29z"/>
<path style="fill:#45c8fa; stroke:none;" d="M5 30L5 31L11 31L5 30z"/>
<path style="fill:#08b6f8; stroke:none;" d="M14 30L14 31L18 31L14 30z"/>
<path style="fill:#ffffff; stroke:none;" d="M28 30L19 32L19 33L33 33L33 32L28 30z"/>
<path style="fill:#bbd5fa; stroke:none;" d="M157 30L157 31L162 33C163.235 29.7248 159.499 30.0414 157 30z"/>
<path style="fill:#ffffff; stroke:none;" d="M11 32L11 33L16 33L11 32z"/>
<path style="fill:#7bacf4; stroke:none;" d="M176 31L176 32L180 32L176 31M184 31L184 32L187 32L184 31z"/>
<path style="fill:#aac9f8; stroke:none;" d="M109 32L109 33L113 33L109 32z"/>
<path style="fill:#009bdb; stroke:none;" d="M138 32L137 34L139 34L138 32z"/>
<path style="fill:#015eea; stroke:none;" d="M142 33L142 34L146 34L142 33z"/>
<path style="fill:#65d2fb; stroke:none;" d="M152 33L152 34L161 34L152 33z"/>
<path style="fill:#0088c5; stroke:none;" d="M195 32L194 35L195 32z"/>
<path style="fill:#00b4f8; stroke:none;" d="M0 33L0 34L95 34L66 33L0 33z"/>
<path style="fill:#1bbcf9; stroke:none;" d="M169.667 33.3333L170.333 33.6667L169.667 33.3333z"/>
<path style="fill:#8addfc; stroke:none;" d="M176 33L176 34L179 34L176 33z"/>
<path style="fill:#86dbfc; stroke:none;" d="M184 33L184 34L187 34L184 33z"/>
<path style="fill:#2bc1f9; stroke:none;" d="M187.667 33.3333L188.333 33.6667L187.667 33.3333z"/>
<path style="fill:#56cdfa; stroke:none;" d="M109 34L109 35L114 35L109 34z"/>
<path style="fill:#12b9f8; stroke:none;" d="M149 34L149 35L152 35L149 34z"/>
<path style="fill:#0071aa; stroke:none;" d="M154 34L154 35L158 35L154 34z"/>
<path style="fill:#007eba; stroke:none;" d="M167 34L167 35L171 35L167 34z"/>
<path style="fill:#57cefa; stroke:none;" d="M171 34L171 35L174 35L171 34z"/>
<path style="fill:#00abee; stroke:none;" d="M174 34L174 35L185 35L174 34z"/>
<path style="fill:#4acafa; stroke:none;" d="M189 34L189 35L194 35L189 34z"/>
<path style="fill:#000000; stroke:none;" d="M0 35L0 38L95 38L95 35L0 35z"/>
<path style="fill:#009ede; stroke:none;" d="M163 35L163 36L167 36L163 35z"/>
</svg>
